# xmcd
#
# Track frame offsets:
#	150
#	17731
#	32356
#	47137
#	65874
#	78540
#	97046
#	114552
#	128742
#	146829
#	163966
#	177739
#	190995
#	206407
#
# Disc length: 2950
#
# Revision: 2
# Processed by: cddbd v1.5.1PL0 Copyright (c) Steve Scherf et al.
# Submitted via: CDex 1.30
# Normalized: r1:TDELIM( - )
#
DISCID=d10b840e
DTITLE=CDX - Volume 265 May 2001
DYEAR=2001
DGENRE=Country
TTITLE0=John Michael Montgomery - Even Then
TTITLE1=Mike Walker - Honey Do
TTITLE2=Andy Griggs - How Cool Is That
TTITLE3=Tyler England - I'd Rather Have Nothing
TTITLE4=Toby Keith - I'm Just Talking About Tonight
TTITLE5=Lisa Brokop and Hal Ketchum - Keep Mom and Dad In Love
TTITLE6=Billy Dean and Suzzi Boguss - Keep Mom and Dad In Love
TTITLE7=Billy Gilman - She's My Girl
TTITLE8=Billy Ray Cyrus - Southern Rain
TTITLE9=Oak Ridge Boys - Write Your Name Across My Heart
TTITLE10=Breaking New Ground - Pamela Anton
TTITLE11=Charlie Waller and TheCountry Gentleman - Crying In the Chapel
TTITLE12=Keith Bryant - Would You sail Away With Me
TTITLE13=Willie P. Richirdson (comedy) - Trying Stuff On
EXTD=\nYEAR: 2001  ID3G:   2
EXTT0=
EXTT1=
EXTT2=
EXTT3=
EXTT4=
EXTT5=
EXTT6=
EXTT7=
EXTT8=
EXTT9=
EXTT10=
EXTT11=
EXTT12=
EXTT13=
PLAYORDER=
